<svg version="1.1" id="Layer_1" xmlns="http://www.w3.org/2000/svg" xmlns:xlink="http://www.w3.org/1999/xlink" x="0px" y="0px"
	 width="100%" viewBox="0 0 214 214" enable-background="new 0 0 214 214" xml:space="preserve">
<path fill="#0072BA" opacity="1.000000" stroke="none" 
	d="
M112.000000,215.000000 
	C110.611107,215.000000 109.222221,215.000000 107.245209,214.625198 
	C103.117058,213.690674 99.480934,213.474274 96.052757,212.514862 
	C75.513252,206.766617 55.012383,200.878922 34.540527,194.894409 
	C33.494984,194.588760 32.217724,193.027237 32.097065,191.934647 
	C31.234919,184.127472 30.713596,176.283554 29.953440,168.464005 
	C28.686596,155.432297 27.198942,142.421051 26.039318,129.380280 
	C25.165730,119.556198 24.770761,109.690323 23.964533,99.859306 
	C22.732109,84.831337 21.316498,69.818459 20.005445,54.796829 
	C19.605537,50.214790 19.365492,45.618206 18.928022,41.040154 
	C17.652327,27.690222 16.313858,14.346287 15.000000,1.000000 
	C77.354225,1.000000 139.708450,1.000000 202.531708,1.464513 
	C202.002457,14.706031 201.034897,27.485529 199.998138,40.259411 
	C198.696823,56.292805 197.341110,72.321793 196.004517,88.352325 
	C195.008804,100.294846 193.922195,112.230522 193.028137,124.180626 
	C191.935883,138.779938 191.012085,153.391815 189.994812,167.996811 
	C189.697952,172.258728 189.363190,176.518616 188.986542,180.774185 
	C188.610458,185.023041 189.567627,190.385361 187.337296,193.188217 
	C185.204697,195.868286 179.725449,195.891647 175.712967,197.068298 
	C162.062073,201.071396 148.430847,205.143845 134.748688,209.037247 
	C127.210602,211.182281 119.585739,213.022400 112.000000,215.000000 
M109.950439,114.083221 
	C109.930885,125.470955 109.911324,136.858688 109.035316,148.376175 
	C101.952576,146.749390 94.906067,144.931274 87.771088,143.580429 
	C84.442978,142.950333 83.485329,141.113556 83.241432,138.193268 
	C82.845360,133.450851 82.338531,128.717682 81.917976,124.387497 
	C73.642944,124.387497 65.941750,124.387497 57.914997,124.387497 
	C59.063629,136.109360 60.090019,147.165039 61.325100,158.197372 
	C61.436195,159.189697 62.734711,160.546158 63.753651,160.865204 
	C78.898819,165.607254 93.812286,171.351501 109.948830,173.029556 
	C109.948830,179.086823 109.948830,185.144104 109.948830,191.744904 
	C112.840408,191.137634 114.617790,190.837891 116.356239,190.387772 
	C132.301743,186.259232 148.239532,182.100861 164.181671,177.959305 
	C171.075134,176.168472 171.591370,175.180695 172.045959,167.989319 
	C172.946518,153.743256 174.072327,139.509705 175.261169,125.284027 
	C176.753738,107.423782 178.440887,89.579880 179.972855,71.722824 
	C181.235336,57.006905 182.292053,42.272491 183.675797,27.568464 
	C183.992950,24.198227 183.006638,22.995464 179.738861,23.002201 
	C157.930908,23.047165 136.122711,23.057392 114.314865,22.991751 
	C111.063675,22.981964 109.855179,24.363087 109.943130,27.504332 
	C110.059547,31.662445 109.947586,35.826954 109.013245,40.123055 
	C89.763557,40.123055 70.513870,40.123055 50.750771,40.123055 
	C51.292591,48.519096 51.781937,56.102009 52.358429,65.035286 
	C66.792847,65.035286 81.074265,65.035286 95.355682,65.035286 
	C95.405495,65.607460 95.455307,66.179634 95.505119,66.751801 
	C86.276756,71.527306 77.050468,76.306839 67.819527,81.077370 
	C54.098175,88.168556 54.088562,88.166885 56.034424,103.537605 
	C56.179008,104.679695 56.680000,105.777969 56.812069,106.920113 
	C57.312176,111.245163 59.351974,112.936195 64.004875,112.881752 
	C79.310661,112.702675 94.622414,113.032677 109.950439,114.083221 
z"/>
<path fill="#FFFFFF" opacity="1.000000" stroke="none" 
	d="
M14.525872,1.000000 
	C16.313858,14.346287 17.652327,27.690222 18.928022,41.040154 
	C19.365492,45.618206 19.605537,50.214790 20.005445,54.796829 
	C21.316498,69.818459 22.732109,84.831337 23.964533,99.859306 
	C24.770761,109.690323 25.165730,119.556198 26.039318,129.380280 
	C27.198942,142.421051 28.686596,155.432297 29.953440,168.464005 
	C30.713596,176.283554 31.234919,184.127472 32.097065,191.934647 
	C32.217724,193.027237 33.494984,194.588760 34.540527,194.894409 
	C55.012383,200.878922 75.513252,206.766617 96.052757,212.514862 
	C99.480934,213.474274 103.117058,213.690674 106.828552,214.625198 
	C71.714149,215.000000 36.428299,215.000000 1.071224,215.000000 
	C1.071224,143.666702 1.071224,72.333366 1.070261,1.000012 
	C5.396780,1.000000 9.724262,1.000000 14.525872,1.000000 
z"/>
<path fill="#FFFFFF" opacity="1.000000" stroke="none" 
	d="
M112.468658,215.000000 
	C119.585739,213.022400 127.210602,211.182281 134.748688,209.037247 
	C148.430847,205.143845 162.062073,201.071396 175.712967,197.068298 
	C179.725449,195.891647 185.204697,195.868286 187.337296,193.188217 
	C189.567627,190.385361 188.610458,185.023041 188.986542,180.774185 
	C189.363190,176.518616 189.697952,172.258728 189.994812,167.996811 
	C191.012085,153.391815 191.935883,138.779938 193.028137,124.180626 
	C193.922195,112.230522 195.008804,100.294846 196.004517,88.352325 
	C197.341110,72.321793 198.696823,56.292805 199.998138,40.259411 
	C201.034897,27.485529 202.002457,14.706031 203.000366,1.464513 
	C206.994675,1.000000 210.989349,1.000000 214.988007,0.999999 
	C214.992004,72.233040 214.992004,143.466080 214.992004,215.000000 
	C180.979691,215.000000 146.958511,215.000000 112.468658,215.000000 
z"/>
<path fill="#F1F3F4" opacity="1.000000" stroke="none" 
	d="
M109.928909,172.106537 
	C93.812286,171.351501 78.898819,165.607254 63.753651,160.865204 
	C62.734711,160.546158 61.436195,159.189697 61.325100,158.197372 
	C60.090019,147.165039 59.063629,136.109360 57.914997,124.387497 
	C65.941750,124.387497 73.642944,124.387497 81.917976,124.387497 
	C82.338531,128.717682 82.845360,133.450851 83.241432,138.193268 
	C83.485329,141.113556 84.442978,142.950333 87.771088,143.580429 
	C94.906067,144.931274 101.952576,146.749390 109.782150,148.463684 
	C118.039619,146.623535 125.571503,144.771393 133.033905,142.672272 
	C133.963104,142.410904 135.075104,140.891190 135.169098,139.868729 
	C135.969299,131.165100 136.553421,122.441589 137.243744,113.167122 
	C127.738579,113.167122 118.835228,113.167122 109.931870,113.167122 
	C94.622414,113.032677 79.310661,112.702675 64.004875,112.881752 
	C59.351974,112.936195 57.312176,111.245163 56.812069,106.920113 
	C56.680000,105.777969 56.179008,104.679695 56.034424,103.537605 
	C54.088562,88.166885 54.098175,88.168556 67.819527,81.077370 
	C77.050468,76.306839 86.276756,71.527306 95.505119,66.751801 
	C95.455307,66.179634 95.405495,65.607460 95.355682,65.035286 
	C81.074265,65.035286 66.792847,65.035286 52.358429,65.035286 
	C51.781937,56.102009 51.292591,48.519096 50.750771,40.123055 
	C70.513870,40.123055 89.763557,40.123055 109.935120,40.181908 
	C129.785843,40.240765 148.714691,40.240765 168.219269,40.240765 
	C167.816513,47.108082 167.166153,53.381706 167.190186,59.652744 
	C167.203903,63.227676 165.794571,65.080559 162.796509,66.541214 
	C153.085281,71.272568 143.395767,76.055557 133.815170,81.043884 
	C130.725662,82.652489 127.998886,84.957733 125.106178,86.944290 
	C125.286819,87.382683 125.467461,87.821083 125.648102,88.259476 
	C138.347763,88.259476 151.047424,88.259476 164.031921,88.259476 
	C162.189941,111.761925 160.444290,134.650665 158.478928,157.520508 
	C158.365860,158.835953 156.688751,160.690109 155.357895,161.124634 
	C140.510498,165.972473 125.710419,171.102158 109.928909,172.106537 
z"/>
<path fill="#0193D2" opacity="1.000000" stroke="none" 
	d="
M109.938873,172.568054 
	C125.710419,171.102158 140.510498,165.972473 155.357895,161.124634 
	C156.688751,160.690109 158.365860,158.835953 158.478928,157.520508 
	C160.444290,134.650665 162.189941,111.761925 164.031921,88.259476 
	C151.047424,88.259476 138.347763,88.259476 125.648102,88.259476 
	C125.467461,87.821083 125.286819,87.382683 125.106178,86.944290 
	C127.998886,84.957733 130.725662,82.652489 133.815170,81.043884 
	C143.395767,76.055557 153.085281,71.272568 162.796509,66.541214 
	C165.794571,65.080559 167.203903,63.227676 167.190186,59.652744 
	C167.166153,53.381706 167.816513,47.108082 168.219269,40.240765 
	C148.714691,40.240765 129.785843,40.240765 110.395386,40.114738 
	C109.947586,35.826954 110.059547,31.662445 109.943130,27.504332 
	C109.855179,24.363087 111.063675,22.981964 114.314865,22.991751 
	C136.122711,23.057392 157.930908,23.047165 179.738861,23.002201 
	C183.006638,22.995464 183.992950,24.198227 183.675797,27.568464 
	C182.292053,42.272491 181.235336,57.006905 179.972855,71.722824 
	C178.440887,89.579880 176.753738,107.423782 175.261169,125.284027 
	C174.072327,139.509705 172.946518,153.743256 172.045959,167.989319 
	C171.591370,175.180695 171.075134,176.168472 164.181671,177.959305 
	C148.239532,182.100861 132.301743,186.259232 116.356239,190.387772 
	C114.617790,190.837891 112.840408,191.137634 109.948830,191.744904 
	C109.948830,185.144104 109.948830,179.086823 109.938873,172.568054 
z"/>
<path fill="#0394D2" opacity="1.000000" stroke="none" 
	d="
M109.941154,113.625168 
	C118.835228,113.167122 127.738579,113.167122 137.243744,113.167122 
	C136.553421,122.441589 135.969299,131.165100 135.169098,139.868729 
	C135.075104,140.891190 133.963104,142.410904 133.033905,142.672272 
	C125.571503,144.771393 118.039619,146.623535 110.210381,148.398804 
	C109.911324,136.858688 109.930885,125.470955 109.941154,113.625168 
z"/>
</svg>